<?xml version="1.0" standalone="no"?>
<!DOCTYPE svg PUBLIC "-//W3C//DTD SVG 20010904//EN"
 "http://www.w3.org/TR/2001/REC-SVG-20010904/DTD/svg10.dtd">
<svg version="1.0" xmlns="http://www.w3.org/2000/svg"
 width="200.000000pt" height="200.000000pt" viewBox="0 0 200.000000 200.000000"
 preserveAspectRatio="xMidYMid meet">
<metadata>
Created by potrace 1.15, written by Peter Selinger 2001-2017
</metadata>
<g transform="translate(0.000000,200.000000) scale(0.100000,-0.100000)"
fill="#000000" stroke="none">
<path d="M387 1903 c-4 -3 -6 -317 -5 -697 l3 -691 5 690 5 690 608 3 607 2 0
-695 c0 -500 -3 -709 -12 -743 -14 -58 -78 -123 -163 -169 -33 -18 -55 -33
-49 -33 19 0 128 70 167 108 69 67 67 52 65 837 l-3 700 -611 3 c-336 1 -614
-1 -617 -5z"/>
<path d="M420 1815 c0 -30 5 -55 10 -55 6 0 10 -20 10 -44 l0 -45 53 -3 52 -3
3 -53 3 -54 45 4 c30 2 44 -1 44 -9 0 -9 17 -13 54 -13 l53 0 0 165 -1 165
-53 0 c-29 0 -53 -3 -53 -8 0 -4 -20 -6 -45 -4 l-45 4 0 -51 c0 -28 -3 -51 -7
-51 -5 0 -6 25 -5 55 l4 55 -61 0 -61 0 0 -55z"/>
<path d="M1260 1705 l0 -165 160 1 160 1 0 164 0 164 -160 0 -160 0 0 -165z"/>
<path d="M1165 1754 c-36 -10 -57 -11 -73 -4 -30 13 -78 13 -122 -1 -43 -13
-109 -13 -125 1 -25 21 -87 -23 -70 -50 2 -4 16 -5 30 -2 15 2 25 0 25 -7 0
-6 -13 -14 -30 -17 -47 -10 -36 -27 13 -21 34 4 38 3 20 -6 -13 -5 -23 -14
-23 -19 0 -16 42 -7 78 17 29 20 49 25 92 24 49 0 52 -1 30 -12 l-25 -11 33
-4 c21 -2 40 3 51 12 29 26 78 21 94 -10 8 -15 17 -22 20 -17 11 18 -6 55 -30
64 -32 12 -20 29 20 29 34 1 67 20 67 39 0 13 -10 13 -75 -5z"/>
<path d="M835 1505 c-50 -49 -20 -125 50 -125 72 0 104 86 49 129 -35 28 -69
26 -99 -4z"/>
<path d="M420 1116 l0 -243 98 23 c84 21 293 54 338 54 12 0 15 18 14 108 -1
59 1 115 5 125 8 18 65 25 65 7 0 -5 7 -10 16 -10 8 0 12 5 9 10 -4 6 8 10 30
10 22 0 34 -4 30 -10 -3 -5 1 -10 10 -10 9 0 13 5 10 10 -4 6 8 10 30 10 22 0
34 -4 30 -10 -3 -5 -1 -10 4 -10 7 0 11 -41 11 -115 l0 -115 33 -1 c17 0 41
-2 52 -4 11 -2 58 -8 105 -15 80 -11 227 -42 260 -54 13 -6 15 24 12 239 l-3
245 -579 0 -580 0 0 -244z"/>
<path d="M929 830 c-27 -26 -29 -34 -29 -103 l0 -75 -120 -1 c-136 -2 -122
-12 -125 88 -1 34 -7 49 -29 67 -15 13 -33 24 -40 24 -23 0 -66 -41 -67 -63
-1 -20 -2 -20 -9 3 -6 18 -8 4 -9 -47 l-1 -73 -40 0 -40 0 0 -86 c0 -97 26
-168 67 -187 13 -6 23 -14 23 -19 0 -15 159 -85 240 -107 100 -26 187 -57 225
-80 30 -17 33 -17 52 -1 24 19 135 59 238 85 39 10 81 24 95 31 14 7 45 22 70
34 25 12 50 27 55 33 6 7 19 17 30 23 41 22 66 88 71 184 l6 90 -39 0 c-60 0
-65 8 -62 87 2 47 -1 76 -9 86 -7 8 -9 17 -5 19 4 3 2 3 -6 1 -8 -2 -17 1 -21
7 -4 7 -14 7 -31 1 l-24 -10 25 0 c28 -1 70 -26 70 -42 0 -6 -12 -1 -26 10
-35 27 -59 26 -89 -4 -21 -20 -25 -34 -25 -83 0 -45 -4 -61 -16 -66 -9 -3 -65
-6 -125 -6 l-109 0 0 83 c0 51 -4 77 -9 68 -7 -11 -10 -9 -16 8 -17 54 -101
67 -146 21z"/>
</g>
</svg>
